<svg xmlns="http://www.w3.org/2000/svg" viewBox="0 0 848 504" width="848" height="504">
  <path d="M0,414 L1,417 L104,416 L140,418 L185,423 L222,429 L227,431 L233,431 L284,443 L334,460 L353,469 L361,476 L361,479 L364,485 L372,492 L378,495 L390,499 L406,502 L440,502 L460,498 L473,493 L483,484 L486,475 L489,472 L506,463 L542,449 L599,433 L640,425 L709,417 L732,416 L846,417 L846,408 L843,393 L838,380 L828,369 L821,366 L735,366 L674,371 L613,382 L582,390 L575,393 L568,394 L547,401 L534,407 L519,412 L485,428 L453,447 L429,466 L421,469 L410,459 L386,442 L356,425 L321,409 L288,397 L254,387 L246,386 L242,384 L225,380 L176,372 L109,366 L26,366 L17,370 L10,377 L6,384 L2,398 Z M809,300 L762,303 L720,309 L663,322 L625,334 L581,351 L540,371 L517,384 L476,413 L495,402 L502,400 L520,391 L555,377 L558,377 L564,374 L608,361 L653,351 L686,346 L719,343 L783,343 L802,345 L809,347 L809,343 L804,337 L773,337 L740,340 L723,340 L673,345 L630,353 L582,366 L544,379 L503,398 L500,398 L516,388 L556,369 L590,356 L642,340 L682,331 L719,325 L772,320 L801,320 L806,316 L808,312 Z M38,300 L39,312 L45,320 L72,320 L123,325 L171,333 L194,339 L203,340 L245,352 L296,371 L329,387 L345,397 L342,397 L297,377 L271,368 L214,353 L175,346 L131,341 L69,337 L42,337 L38,342 L38,346 L58,343 L120,343 L170,348 L221,357 L267,369 L305,382 L341,398 L348,400 L370,413 L331,385 L305,370 L263,350 L240,341 L229,338 L226,336 L177,321 L127,310 L78,303 L49,300 Z M234,62 L252,57 L266,55 L281,55 L295,59 L300,64 L300,69 L296,74 L296,77 L298,79 L306,79 L314,77 L335,66 L346,62 L364,61 L375,64 L370,59 L360,54 L352,52 L328,53 L321,47 L315,44 L305,42 L290,42 L267,46 L252,51 L237,59 Z M788,277 L786,271 L774,256 L765,252 L750,250 L721,250 L678,254 L653,259 L674,266 L690,269 L702,269 L705,271 L670,272 L652,269 L632,262 L617,254 L607,247 L589,230 L579,217 L574,208 L568,192 L565,176 L566,155 L568,148 L574,137 L582,128 L594,121 L605,118 L622,118 L632,120 L644,125 L653,131 L664,141 L668,142 L673,137 L675,132 L675,115 L671,100 L660,81 L645,65 L633,56 L623,50 L605,42 L583,36 L560,33 L529,33 L505,36 L469,45 L439,57 L410,72 L372,97 L344,119 L288,168 L258,192 L233,209 L212,221 L191,231 L173,237 L170,239 L137,248 L103,253 L79,252 L102,257 L144,256 L162,253 L185,247 L220,233 L253,215 L278,198 L312,171 L359,130 L394,103 L414,90 L439,76 L478,60 L507,53 L532,50 L554,50 L572,52 L593,57 L612,65 L627,75 L641,89 L646,97 L643,97 L620,86 L603,81 L584,78 L558,77 L524,81 L503,86 L485,92 L475,97 L468,99 L436,116 L399,142 L327,199 L300,217 L281,228 L250,243 L214,256 L181,264 L160,266 L184,269 L218,276 L251,285 L280,295 L310,309 L312,309 L339,324 L365,342 L368,345 L366,346 L344,332 L312,316 L274,301 L268,300 L265,298 L235,289 L181,277 L136,270 L89,266 L62,262 L57,263 L56,265 L56,274 L58,282 L88,283 L120,286 L154,291 L194,299 L257,317 L305,337 L344,359 L376,383 L390,396 L406,414 L419,433 L422,440 L425,438 L427,433 L442,412 L469,384 L491,367 L509,355 L552,332 L590,316 L607,311 L610,309 L656,296 L692,289 L724,285 L767,282 L788,282 Z M512,194 L514,213 L520,231 L527,244 L538,258 L551,270 L566,280 L586,288 L604,292 L593,294 L575,294 L554,290 L543,286 L533,280 L520,267 L512,253 L507,233 L508,209 Z M294,245 L322,232 L352,213 L386,188 L416,162 L417,164 L409,178 L403,194 L400,206 L399,214 L400,242 L407,264 L414,277 L420,285 L437,302 L453,312 L450,313 L428,302 L408,288 L390,270 L384,262 L375,245 L370,230 L369,219 L367,219 L365,221 L352,227 L326,236 L323,238 L297,246 Z M503,120 L494,129 L486,140 L476,159 L472,170 L468,190 L468,216 L471,233 L477,250 L482,260 L494,277 L508,291 L523,302 L532,307 L545,311 L548,313 L543,314 L528,312 L508,307 L495,302 L479,293 L471,287 L454,269 L446,256 L439,234 L438,228 L439,199 L443,184 L451,167 L464,149 L478,135 L496,122 Z M442,9 L425,3 L413,1 L387,2 L376,5 L363,11 L354,17 L343,27 L363,21 L373,20 L377,21 L379,23 L379,29 L387,24 L395,16 L406,10 L414,8 Z" fill="#1B4F52" fill-rule="evenodd"/>
</svg>