<?xml version="1.0" encoding="UTF-8" standalone="no"?>
<!DOCTYPE svg PUBLIC "-//W3C//DTD SVG 1.1//EN" "http://www.w3.org/Graphics/SVG/1.1/DTD/svg11.dtd">
<svg xmlns="http://www.w3.org/2000/svg" version="1.1" viewBox="0.00 0.00 2963.00 720.00">
<path fill="#ffffff" d="
  M 564.02 100.27
  A 0.83 0.81 -31.3 0 1 563.68 101.56
  Q 563.07 101.81 562.52 101.27
  A 1.76 1.74 -18.7 0 0 561.54 100.79
  C 544.79 98.44 527.71 98.58 514.89 108.17
  Q 507.89 113.41 501.05 119.80
  Q 499.21 121.52 496.78 122.26
  A 1.29 1.29 0.0 0 1 495.12 120.93
  L 495.50 115.83
  A 0.92 0.92 0.0 0 0 495.32 115.20
  C 493.42 112.72 490.69 113.13 487.28 113.33
  Q 474.02 114.10 461.03 119.72
  Q 459.50 120.38 458.32 120.92
  A 0.83 0.83 0.0 0 1 457.39 119.58
  C 461.59 115.38 464.95 111.85 469.66 108.29
  Q 491.43 91.77 518.56 90.65
  Q 529.77 90.19 541.24 92.52
  Q 552.11 94.73 562.96 99.31
  Q 563.29 99.45 564.02 100.27
  Z"
/>
<path fill="#ffffff" d="
  M 173.23 360.87
  Q 174.87 359.83 177.30 359.96
  Q 190.75 360.73 207.99 359.31
  Q 231.28 357.39 252.68 351.11
  Q 263.13 348.04 274.16 344.63
  C 290.08 339.70 305.28 332.44 320.15 324.73
  C 326.38 321.49 332.72 317.38 340.06 313.03
  Q 346.14 309.44 359.92 299.84
  Q 368.25 294.03 378.91 285.40
  Q 397.01 270.74 400.34 267.84
  Q 400.87 267.38 416.88 253.61
  Q 448.83 226.13 449.13 225.88
  Q 468.58 209.39 482.25 199.01
  C 507.65 179.72 535.74 162.25 565.30 149.04
  Q 570.53 146.70 584.67 141.29
  Q 595.57 137.12 604.45 134.78
  Q 624.16 129.59 642.17 127.13
  Q 684.71 121.32 725.66 131.40
  Q 736.37 134.03 745.97 138.23
  Q 754.31 141.87 764.92 148.16
  C 781.37 157.92 794.67 170.79 804.35 187.60
  Q 815.30 206.59 814.21 228.22
  Q 813.78 236.91 807.50 242.29
  Q 804.79 244.61 801.66 242.13
  C 795.21 237.00 788.55 230.56 782.10 226.82
  Q 767.66 218.46 749.31 217.62
  Q 729.37 216.72 714.39 228.66
  Q 708.12 233.66 702.50 243.55
  C 696.26 254.55 696.28 268.35 697.25 280.49
  Q 698.62 297.52 705.83 312.15
  C 715.90 332.61 733.13 349.89 752.31 361.95
  Q 770.44 373.35 793.70 378.38
  Q 805.90 381.02 813.50 381.45
  Q 829.15 382.32 839.24 381.66
  Q 840.12 381.60 840.66 381.44
  A 0.52 0.51 -46.3 0 0 840.64 380.45
  Q 837.82 379.74 829.17 378.81
  C 817.06 377.50 804.64 374.37 793.73 369.99
  Q 789.14 368.15 788.47 368.14
  A 0.28 0.28 0.0 0 1 788.26 367.67
  Q 788.95 366.90 791.26 366.51
  C 810.84 363.18 827.24 360.41 846.70 359.12
  Q 870.00 357.59 890.25 357.87
  C 899.20 357.99 907.53 358.56 915.16 362.02
  Q 918.36 363.46 921.74 366.83
  C 927.62 372.68 931.91 378.63 934.62 386.18
  Q 935.77 389.41 935.75 392.15
  A 1.31 1.29 -86.4 0 1 934.31 393.43
  C 931.77 393.14 929.04 393.77 926.55 393.86
  Q 898.97 394.80 894.00 395.06
  Q 847.83 397.50 798.52 407.79
  Q 783.92 410.84 767.15 415.69
  C 731.50 425.98 696.82 439.74 664.14 456.15
  Q 657.51 459.48 637.60 471.13
  Q 620.64 481.05 600.73 496.97
  Q 565.76 524.94 543.78 563.25
  A 0.39 0.39 0.0 0 1 543.10 563.25
  Q 533.49 546.02 520.28 529.95
  C 516.70 525.59 511.89 519.72 507.50 515.40
  Q 484.77 493.07 457.26 475.49
  C 434.67 461.06 410.54 448.71 385.54 439.00
  Q 371.14 433.41 364.73 431.05
  Q 359.57 429.15 342.46 423.97
  Q 340.68 423.44 318.02 417.27
  Q 303.58 413.34 293.41 411.15
  Q 252.34 402.33 216.62 397.94
  Q 191.77 394.89 152.50 393.95
  A 0.75 0.74 63.9 0 1 152.10 393.81
  Q 150.99 392.96 151.46 392.10
  A 0.84 0.83 54.0 0 0 151.54 391.57
  Q 150.64 386.55 149.85 382.06
  Q 148.81 376.14 151.88 370.80
  A 0.75 0.75 0.0 0 1 152.59 370.43
  Q 156.03 370.71 176.54 373.21
  Q 183.82 374.11 200.48 375.53
  Q 225.48 377.66 239.76 379.74
  Q 248.23 380.98 281.93 386.62
  C 295.83 388.94 309.18 391.53 324.49 395.42
  Q 337.24 398.66 346.29 400.98
  Q 362.64 405.17 391.56 415.58
  Q 417.30 424.84 438.23 435.12
  Q 453.65 442.70 474.82 455.37
  Q 479.47 458.15 484.13 461.12
  A 0.21 0.20 89.2 0 0 484.41 460.83
  Q 484.01 460.24 483.09 460.00
  A 1.47 1.43 81.8 0 1 482.18 459.30
  Q 480.95 457.12 476.04 454.21
  Q 473.84 452.91 464.05 445.61
  C 460.07 442.65 452.82 438.29 447.05 435.20
  C 439.29 431.04 431.71 426.05 423.73 422.42
  Q 402.99 412.99 401.80 412.50
  C 379.14 403.15 356.12 395.46 332.35 389.49
  Q 306.58 383.02 278.28 378.46
  Q 270.34 377.19 259.15 375.53
  A 0.20 0.20 0.0 0 1 259.16 375.14
  Q 288.39 372.76 317.29 364.00
  Q 322.03 362.56 332.87 359.15
  Q 343.16 355.90 348.28 353.80
  Q 382.79 339.64 411.43 321.91
  C 442.86 302.46 466.81 282.70 502.76 254.05
  Q 509.61 248.60 519.11 241.37
  C 533.40 230.49 545.86 221.39 560.44 212.69
  Q 565.07 209.92 580.13 201.98
  C 596.56 193.32 613.82 186.70 629.90 181.95
  Q 649.57 176.14 676.27 173.28
  Q 679.40 172.95 694.71 172.69
  Q 710.18 172.42 729.81 175.68
  Q 750.50 179.11 768.15 188.37
  Q 773.91 191.39 781.32 195.03
  A 0.41 0.41 0.0 0 0 781.86 194.47
  C 779.29 189.79 776.46 186.71 772.17 181.91
  C 765.47 174.39 756.64 167.67 748.69 163.06
  Q 734.45 154.78 717.01 150.54
  Q 702.20 146.94 691.99 146.38
  Q 691.17 146.34 679.82 145.80
  C 670.20 145.34 661.28 145.95 651.76 146.39
  Q 641.45 146.87 625.02 150.37
  Q 590.61 157.71 557.85 174.82
  Q 519.10 195.08 485.72 222.46
  Q 471.42 234.19 457.37 245.93
  C 454.33 248.47 452.12 251.37 449.19 253.36
  Q 447.79 254.32 445.74 256.11
  Q 417.03 281.25 392.87 299.63
  Q 377.45 311.36 357.18 323.92
  Q 347.06 330.19 339.00 334.05
  C 331.25 337.77 321.89 343.03 314.02 346.17
  Q 293.75 354.27 277.96 358.69
  Q 253.91 365.42 228.02 366.54
  Q 226.66 366.59 212.36 366.46
  Q 202.66 366.37 196.69 365.72
  Q 184.41 364.40 173.33 361.53
  A 0.37 0.36 -53.9 0 1 173.23 360.87
  Z
  M 628.10 218.99
  Q 624.33 220.57 621.18 222.69
  Q 618.15 224.73 606.00 233.74
  C 590.64 245.14 579.23 259.98 570.65 277.39
  C 561.24 296.48 558.53 316.69 561.20 337.72
  C 565.94 375.15 594.46 402.86 628.24 416.03
  Q 633.51 418.09 642.97 420.42
  Q 655.99 423.63 657.95 424.05
  Q 665.10 425.60 673.41 425.67
  A 0.59 0.59 0.0 0 0 673.57 424.51
  Q 661.92 421.37 650.72 414.52
  C 622.94 397.52 602.94 371.52 594.47 339.81
  Q 584.62 302.88 597.46 266.82
  Q 607.22 239.41 628.40 219.45
  A 0.28 0.28 0.0 0 0 628.10 218.99
  Z
  M 534.74 267.43
  C 532.94 268.36 530.92 269.77 529.35 271.20
  Q 521.24 278.61 519.36 280.10
  Q 490.07 303.35 468.88 318.14
  Q 453.82 328.65 434.19 339.93
  Q 420.97 347.53 409.15 351.50
  A 0.49 0.49 0.0 0 0 409.03 352.37
  L 409.13 352.43
  A 1.95 1.95 0.0 0 0 410.79 352.68
  Q 445.87 342.10 480.03 326.75
  Q 483.02 325.41 485.08 324.17
  A 1.10 1.10 0.0 0 1 486.75 325.06
  Q 487.35 337.10 491.14 347.81
  Q 497.18 364.84 507.19 377.05
  Q 515.45 387.13 522.68 393.58
  Q 543.64 412.25 570.55 424.19
  Q 571.52 424.62 571.70 424.59
  Q 572.71 424.41 573.39 425.59
  A 0.37 0.37 0.0 0 0 573.90 425.72
  L 574.17 425.57
  A 0.52 0.52 0.0 0 0 574.33 424.82
  Q 573.59 423.82 572.83 423.48
  Q 567.22 420.99 560.51 415.95
  Q 533.27 395.51 522.46 364.55
  C 517.68 350.84 516.47 336.87 517.12 322.43
  Q 517.69 309.70 523.08 294.09
  Q 528.16 279.38 534.91 267.61
  A 0.13 0.13 0.0 0 0 534.74 267.43
  Z
  M 733.73 402.97
  Q 733.65 402.93 727.51 401.76
  Q 701.97 396.89 681.59 381.16
  Q 674.12 375.40 669.34 370.41
  Q 660.39 361.09 652.37 348.73
  C 648.98 343.49 646.35 337.15 644.16 331.37
  Q 640.08 320.61 639.48 309.06
  C 639.34 306.39 639.85 303.14 639.35 299.96
  A 0.43 0.43 0.0 0 0 638.53 299.87
  C 637.98 301.27 637.97 303.29 637.54 305.22
  Q 633.22 324.71 635.74 344.78
  C 638.07 363.31 648.40 381.10 664.31 391.22
  Q 673.60 397.14 681.00 399.29
  Q 695.10 403.38 708.26 404.05
  Q 711.90 404.23 727.96 404.11
  Q 732.68 404.07 733.71 403.62
  A 0.36 0.36 0.0 0 0 733.73 402.97
  Z"
/>
<path fill="#ffffff" d="
  M 340.47 157.20
  A 0.50 0.50 0.0 0 1 340.23 156.30
  C 348.31 150.51 357.52 145.68 367.61 142.26
  Q 384.49 136.55 401.72 134.92
  Q 413.28 133.82 423.53 136.09
  C 427.53 136.98 432.76 139.11 435.80 141.35
  Q 436.07 141.55 440.97 145.76
  C 443.50 147.94 450.93 146.28 454.86 145.75
  Q 459.27 145.15 463.74 145.47
  C 473.67 146.17 486.28 150.27 492.55 158.19
  A 0.55 0.55 0.0 0 1 491.99 159.07
  Q 470.62 154.06 451.35 161.65
  C 445.68 163.88 438.83 168.17 433.88 170.38
  C 424.95 174.36 418.22 176.20 409.29 175.48
  A 2.07 2.06 76.8 0 1 407.66 174.46
  L 406.16 171.86
  A 2.09 2.09 0.0 0 1 406.49 169.34
  L 410.96 164.87
  A 1.12 1.11 72.5 0 0 411.27 164.27
  C 412.42 157.76 407.15 154.32 401.68 152.84
  Q 387.84 149.11 374.48 150.90
  Q 362.52 152.50 357.77 153.55
  Q 348.71 155.56 341.00 157.19
  Q 340.76 157.24 340.47 157.20
  Z"
/>
<path fill="#faf7f2" d="
  M 1668.91 430.51
  Q 1674.92 430.13 1680.25 429.73
  C 1685.63 429.32 1686.38 425.07 1686.39 419.81
  Q 1686.51 307.75 1686.38 299.99
  C 1686.32 296.31 1685.12 293.10 1681.00 293.07
  Q 1678.71 293.06 1669.36 293.07
  A 0.52 0.51 1.6 0 1 1668.84 292.53
  L 1669.05 287.36
  A 0.49 0.49 0.0 0 1 1669.47 286.90
  C 1680.93 285.23 1691.45 283.35 1701.60 279.37
  A 2.19 2.19 0.0 0 1 1704.58 281.41
  Q 1704.62 340.00 1704.60 418.77
  C 1704.60 422.59 1704.45 428.82 1710.11 429.61
  Q 1712.79 429.98 1722.09 430.47
  A 0.59 0.59 0.0 0 1 1722.65 431.09
  L 1722.42 436.62
  A 0.41 0.41 0.0 0 1 1721.99 437.01
  Q 1695.45 435.76 1668.76 437.02
  A 0.33 0.32 0.8 0 1 1668.42 436.68
  L 1668.67 430.76
  A 0.26 0.26 0.0 0 1 1668.91 430.51
  Z"
/>
<path fill="#faf7f2" d="
  M 2529.43 436.68
  L 2529.68 430.76
  A 0.26 0.26 0.0 0 1 2529.92 430.51
  Q 2535.93 430.13 2541.26 429.73
  C 2546.64 429.32 2547.39 425.07 2547.40 419.81
  Q 2547.51 307.75 2547.38 299.99
  C 2547.32 296.31 2546.12 293.10 2542.00 293.08
  Q 2539.71 293.07 2530.36 293.08
  A 0.52 0.51 1.6 0 1 2529.84 292.54
  L 2530.05 287.37
  A 0.49 0.49 0.0 0 1 2530.47 286.91
  C 2541.93 285.24 2552.45 283.36 2562.60 279.37
  A 2.19 2.19 0.0 0 1 2565.58 281.41
  Q 2565.62 340.00 2565.60 418.77
  C 2565.60 422.59 2565.45 428.82 2571.11 429.61
  Q 2573.79 429.98 2583.09 430.47
  A 0.59 0.59 0.0 0 1 2583.65 431.09
  L 2583.42 436.62
  A 0.41 0.41 0.0 0 1 2582.99 437.01
  Q 2556.46 435.76 2529.77 437.02
  A 0.33 0.32 0.8 0 1 2529.43 436.68
  Z"
/>
<path fill="#faf7f2" d="
  M 1285.58 430.51
  A 0.31 0.30 -88.0 0 1 1285.86 430.82
  L 1285.86 436.77
  A 0.24 0.24 0.0 0 1 1285.61 437.01
  Q 1259.04 435.77 1232.55 437.01
  A 0.24 0.24 0.0 0 1 1232.30 436.77
  L 1232.30 430.81
  A 0.29 0.28 89.0 0 1 1232.57 430.52
  Q 1237.48 430.19 1244.00 429.72
  C 1249.44 429.32 1249.89 424.52 1249.93 419.49
  Q 1250.07 401.69 1249.98 302.25
  C 1249.98 297.58 1249.78 292.86 1243.55 293.03
  Q 1238.47 293.16 1232.79 293.07
  A 0.29 0.29 0.0 0 1 1232.50 292.78
  L 1232.50 287.13
  A 0.29 0.29 0.0 0 1 1232.76 286.84
  Q 1250.10 284.85 1265.25 279.39
  A 2.15 2.15 0.0 0 1 1268.13 281.41
  L 1268.13 354.16
  A 0.24 0.24 0.0 0 0 1268.53 354.34
  Q 1279.69 344.62 1284.36 340.60
  C 1290.88 334.99 1298.47 334.60 1306.98 335.25
  C 1326.53 336.75 1337.23 349.43 1337.51 368.82
  Q 1337.87 393.26 1337.65 418.79
  C 1337.63 421.21 1337.76 426.70 1340.45 428.67
  Q 1341.74 429.61 1345.59 429.88
  Q 1353.77 430.46 1354.05 430.47
  A 0.54 0.54 0.0 0 1 1354.56 431.01
  L 1354.56 436.54
  A 0.46 0.45 -87.7 0 1 1354.07 437.00
  Q 1337.07 435.78 1319.86 436.99
  A 0.30 0.29 87.4 0 1 1319.54 436.69
  Q 1319.62 408.53 1319.52 375.27
  C 1319.47 358.66 1308.73 345.89 1291.10 348.70
  Q 1280.95 350.32 1273.28 358.01
  C 1269.05 362.25 1267.92 365.88 1268.12 372.13
  Q 1268.14 372.80 1268.15 420.00
  C 1268.15 424.30 1268.73 429.31 1274.24 429.72
  Q 1282.09 430.30 1285.58 430.51
  Z"
/>
<path fill="#faf7f2" d="
  M 2335.58 430.51
  A 0.31 0.30 -88.0 0 1 2335.86 430.82
  L 2335.86 436.77
  A 0.24 0.24 0.0 0 1 2335.61 437.01
  Q 2309.04 435.77 2282.55 437.01
  A 0.24 0.24 0.0 0 1 2282.30 436.77
  L 2282.30 430.81
  A 0.29 0.28 89.0 0 1 2282.57 430.52
  Q 2287.48 430.19 2294.00 429.72
  C 2299.44 429.32 2299.89 424.52 2299.93 419.49
  Q 2300.07 401.69 2299.98 302.25
  C 2299.98 297.58 2299.78 292.86 2293.55 293.03
  Q 2288.47 293.16 2282.79 293.07
  A 0.29 0.29 0.0 0 1 2282.50 292.78
  L 2282.50 287.13
  A 0.29 0.29 0.0 0 1 2282.76 286.84
  Q 2300.10 284.85 2315.25 279.39
  A 2.15 2.15 0.0 0 1 2318.13 281.41
  L 2318.13 354.16
  A 0.24 0.24 0.0 0 0 2318.53 354.34
  Q 2329.69 344.62 2334.36 340.60
  C 2340.88 334.99 2348.47 334.60 2356.98 335.25
  C 2376.53 336.75 2387.23 349.43 2387.51 368.82
  Q 2387.87 393.26 2387.65 418.79
  C 2387.63 421.21 2387.76 426.70 2390.45 428.67
  Q 2391.74 429.61 2395.59 429.88
  Q 2403.77 430.46 2404.05 430.47
  A 0.54 0.54 0.0 0 1 2404.56 431.01
  L 2404.56 436.54
  A 0.46 0.45 -87.7 0 1 2404.07 437.00
  Q 2387.07 435.78 2369.86 436.99
  A 0.30 0.29 87.4 0 1 2369.54 436.69
  Q 2369.62 408.53 2369.52 375.27
  C 2369.47 358.66 2358.73 345.89 2341.10 348.70
  Q 2330.95 350.32 2323.28 358.01
  C 2319.05 362.25 2317.92 365.88 2318.12 372.13
  Q 2318.14 372.80 2318.15 420.00
  C 2318.15 424.30 2318.73 429.31 2324.24 429.72
  Q 2332.09 430.30 2335.58 430.51
  Z"
/>
<path fill="#faf7f2" d="
  M 1217.45 292.75
  Q 1214.52 307.59 1214.54 322.08
  A 0.30 0.30 0.0 0 1 1214.24 322.38
  L 1207.93 322.47
  A 0.35 0.35 0.0 0 1 1207.57 322.15
  Q 1206.90 314.44 1205.96 308.05
  Q 1205.14 302.41 1199.27 298.83
  Q 1185.93 290.70 1169.53 292.39
  C 1151.60 294.24 1139.97 308.36 1141.54 326.73
  C 1142.65 339.71 1152.36 345.10 1163.73 347.80
  C 1175.00 350.48 1189.79 351.38 1202.66 355.06
  C 1214.30 358.38 1224.25 366.59 1226.02 379.02
  C 1230.16 408.18 1209.69 431.19 1182.23 437.57
  Q 1153.20 444.31 1125.04 432.02
  A 0.82 0.82 0.0 0 1 1124.55 431.15
  Q 1126.84 415.08 1125.99 399.22
  A 0.30 0.30 0.0 0 1 1126.29 398.91
  L 1132.51 398.82
  A 0.40 0.40 0.0 0 1 1132.92 399.18
  Q 1134.30 410.51 1134.32 410.81
  C 1134.73 415.91 1136.76 418.99 1140.37 421.64
  C 1158.68 435.11 1193.23 434.28 1204.97 411.75
  Q 1209.03 403.96 1208.34 394.55
  C 1207.00 376.31 1190.29 371.38 1175.24 369.26
  C 1154.83 366.38 1126.86 363.83 1123.65 337.93
  C 1119.80 306.92 1143.33 285.34 1173.01 283.29
  C 1189.10 282.18 1202.26 286.00 1216.97 291.85
  A 0.80 0.80 0.0 0 1 1217.45 292.75
  Z"
/>
<path fill="#faf7f2" d="
  M 2170.97 291.85
  A 0.80 0.80 0.0 0 1 2171.45 292.75
  Q 2168.52 307.59 2168.54 322.08
  A 0.30 0.30 0.0 0 1 2168.24 322.38
  L 2161.93 322.47
  A 0.35 0.35 0.0 0 1 2161.57 322.15
  Q 2160.90 314.44 2159.96 308.05
  Q 2159.14 302.41 2153.27 298.83
  Q 2139.93 290.70 2123.53 292.39
  C 2105.60 294.24 2093.97 308.36 2095.54 326.73
  C 2096.65 339.71 2106.36 345.10 2117.73 347.80
  C 2129.00 350.48 2143.79 351.38 2156.66 355.06
  C 2168.30 358.38 2178.25 366.59 2180.02 379.02
  C 2184.16 408.18 2163.69 431.19 2136.23 437.57
  Q 2107.20 444.31 2079.04 432.02
  A 0.82 0.82 0.0 0 1 2078.55 431.15
  Q 2080.84 415.08 2079.99 399.22
  A 0.30 0.30 0.0 0 1 2080.29 398.91
  L 2086.51 398.82
  A 0.40 0.40 0.0 0 1 2086.92 399.18
  Q 2088.30 410.51 2088.32 410.81
  C 2088.73 415.91 2090.76 418.99 2094.37 421.64
  C 2112.68 435.11 2147.23 434.28 2158.97 411.75
  Q 2163.03 403.96 2162.34 394.55
  C 2161.00 376.31 2144.29 371.38 2129.24 369.26
  C 2108.83 366.38 2080.86 363.83 2077.65 337.93
  C 2073.80 306.92 2097.33 285.34 2127.01 283.29
  C 2143.10 282.18 2156.26 286.00 2170.97 291.85
  Z"
/>
<circle fill="#faf7f2" cx="1758.53" cy="308.22" r="10.90"/>
<path fill="#faf7f2" d="
  M 1467.69 379.49
  C 1470.52 410.59 1450.25 435.81 1419.21 439.46
  C 1408.65 440.70 1398.43 439.68 1389.22 435.03
  C 1366.53 423.59 1360.17 396.18 1365.97 373.16
  C 1370.73 354.28 1384.81 340.80 1403.96 336.47
  C 1434.42 329.59 1464.72 346.79 1467.69 379.49
  Z
  M 1384.34 390.51
  C 1386.28 410.94 1398.09 435.72 1423.07 432.50
  C 1446.03 429.54 1449.06 402.28 1447.37 384.40
  C 1445.43 363.98 1433.62 339.19 1408.64 342.41
  C 1385.68 345.37 1382.65 372.63 1384.34 390.51
  Z"
/>
<path fill="#faf7f2" d="
  M 1479.87 430.49
  Q 1487.37 430.09 1492.05 429.60
  C 1497.28 429.05 1497.39 423.39 1497.40 418.75
  Q 1497.51 372.80 1497.38 359.50
  C 1497.33 355.14 1496.48 350.43 1491.07 350.15
  Q 1486.12 349.89 1480.56 350.03
  A 0.61 0.60 -0.5 0 1 1479.94 349.43
  L 1479.94 344.51
  A 0.68 0.67 86.7 0 1 1480.53 343.84
  Q 1497.10 341.84 1513.03 335.22
  A 1.86 1.85 -11.3 0 1 1515.60 336.93
  L 1515.60 357.68
  A 0.20 0.20 0.0 0 0 1515.96 357.81
  Q 1522.16 350.43 1527.50 344.26
  C 1534.66 335.99 1544.98 332.57 1555.36 337.09
  A 0.67 0.65 -76.9 0 1 1555.75 337.74
  L 1553.87 362.76
  A 0.60 0.60 0.0 0 1 1553.27 363.32
  L 1549.72 363.32
  A 0.80 0.79 76.7 0 1 1549.01 362.88
  Q 1544.24 353.34 1535.07 353.44
  C 1523.29 353.56 1515.86 365.22 1515.71 376.28
  Q 1515.46 395.73 1515.64 418.69
  C 1515.68 423.54 1515.54 429.00 1522.00 429.54
  Q 1530.45 430.25 1536.69 430.48
  A 0.29 0.29 0.0 0 1 1536.97 430.77
  L 1536.97 436.79
  A 0.25 0.24 -88.9 0 1 1536.72 437.04
  Q 1508.09 435.77 1479.81 436.99
  A 0.26 0.26 0.0 0 1 1479.54 436.73
  L 1479.54 430.83
  A 0.34 0.34 0.0 0 1 1479.87 430.49
  Z"
/>
<path fill="#faf7f2" d="
  M 1585.83 386.93
  C 1585.60 403.69 1592.13 419.37 1608.06 425.63
  Q 1622.07 431.15 1636.54 426.37
  Q 1639.32 425.45 1650.98 418.87
  A 0.85 0.85 0.0 0 1 1651.82 418.87
  L 1653.76 419.99
  A 0.81 0.81 0.0 0 1 1654.06 421.09
  L 1650.10 427.93
  A 3.36 3.34 88.8 0 1 1649.00 429.08
  C 1631.83 439.84 1611.19 443.72 1592.13 435.43
  Q 1572.05 426.70 1567.35 404.91
  Q 1563.86 388.77 1567.21 373.00
  Q 1570.08 359.51 1579.86 350.69
  C 1591.84 339.87 1609.57 332.51 1626.04 335.94
  C 1649.31 340.80 1658.65 360.29 1656.36 382.74
  A 0.84 0.84 0.0 0 1 1655.64 383.48
  Q 1638.04 385.97 1627.99 386.20
  Q 1616.22 386.47 1586.45 386.32
  A 0.62 0.62 0.0 0 0 1585.83 386.93
  Z
  M 1637.49 377.70
  C 1637.60 367.01 1635.98 357.20 1629.09 348.81
  Q 1624.54 343.26 1617.39 342.44
  C 1600.36 340.47 1587.53 353.24 1586.39 369.94
  Q 1586.12 373.93 1586.12 377.30
  A 0.56 0.54 2.9 0 0 1586.62 377.84
  Q 1610.09 379.86 1636.99 378.23
  A 0.53 0.53 0.0 0 0 1637.49 377.70
  Z"
/>
<path fill="#faf7f2" d="
  M 1731.85 430.51
  Q 1739.67 430.03 1743.89 429.64
  C 1749.49 429.13 1749.42 422.89 1749.42 418.00
  Q 1749.49 373.83 1749.39 359.50
  C 1749.36 355.37 1748.54 350.53 1743.28 350.18
  Q 1738.75 349.87 1732.56 350.03
  A 0.60 0.60 0.0 0 1 1731.94 349.43
  L 1731.94 344.52
  A 0.68 0.67 -3.3 0 1 1732.54 343.85
  Q 1749.12 341.81 1765.16 335.17
  A 1.77 1.77 0.0 0 1 1767.61 336.81
  Q 1767.56 396.42 1767.62 418.39
  C 1767.63 422.63 1767.39 428.99 1773.28 429.65
  Q 1776.30 429.99 1785.03 430.48
  A 0.53 0.53 0.0 0 1 1785.54 431.01
  L 1785.54 436.54
  A 0.47 0.46 -88.8 0 1 1785.06 437.01
  Q 1758.50 435.76 1731.80 437.01
  A 0.25 0.25 0.0 0 1 1731.54 436.76
  L 1731.54 430.83
  A 0.33 0.32 -1.9 0 1 1731.85 430.51
  Z"
/>
<path fill="#faf7f2" d="
  M 1790.70 430.49
  Q 1797.62 430.10 1802.39 429.64
  C 1807.79 429.11 1807.92 423.61 1807.96 419.01
  Q 1808.02 411.89 1808.02 365.26
  Q 1808.02 358.08 1807.30 354.75
  Q 1806.34 350.32 1801.36 350.13
  Q 1795.66 349.91 1791.00 350.01
  A 0.49 0.49 0.0 0 1 1790.50 349.52
  L 1790.50 344.39
  A 0.54 0.53 -3.7 0 1 1790.97 343.86
  Q 1807.77 341.82 1823.62 335.20
  A 1.82 1.81 -11.4 0 1 1826.14 336.87
  L 1826.14 354.10
  A 0.27 0.27 0.0 0 0 1826.59 354.30
  Q 1835.37 346.62 1842.64 340.38
  Q 1848.45 335.38 1857.25 335.07
  C 1872.33 334.55 1886.07 338.56 1892.27 352.95
  C 1895.08 359.48 1895.70 366.68 1895.70 374.16
  Q 1895.69 406.01 1895.70 418.50
  C 1895.70 421.02 1895.58 426.40 1898.40 428.64
  Q 1899.61 429.60 1903.66 429.89
  Q 1911.77 430.46 1912.05 430.47
  A 0.54 0.54 0.0 0 1 1912.56 431.01
  L 1912.56 436.51
  A 0.50 0.49 -87.9 0 1 1912.03 437.01
  Q 1895.35 435.78 1878.19 436.97
  A 0.61 0.60 -1.8 0 1 1877.54 436.37
  Q 1877.58 425.29 1877.55 377.02
  Q 1877.55 369.10 1875.41 363.37
  C 1867.35 341.80 1840.15 345.53 1828.70 361.10
  C 1826.82 363.66 1826.14 366.44 1826.14 369.79
  Q 1826.13 410.18 1826.15 415.75
  Q 1826.17 420.56 1826.32 423.26
  Q 1826.67 429.43 1832.99 429.82
  Q 1834.63 429.92 1843.57 430.49
  A 0.31 0.30 2.0 0 1 1843.86 430.79
  L 1843.86 436.80
  A 0.22 0.21 1.3 0 1 1843.63 437.01
  Q 1817.02 435.77 1790.65 437.01
  A 0.35 0.35 0.0 0 1 1790.29 436.66
  L 1790.29 430.91
  A 0.43 0.42 -1.4 0 1 1790.70 430.49
  Z"
/>
<path fill="#faf7f2" d="
  M 1940.45 386.32
  A 0.62 0.62 0.0 0 0 1939.83 386.93
  C 1939.60 403.69 1946.13 419.37 1962.06 425.63
  Q 1976.07 431.15 1990.54 426.37
  Q 1993.32 425.45 2004.98 418.87
  A 0.85 0.85 0.0 0 1 2005.82 418.87
  L 2007.76 419.99
  A 0.81 0.81 0.0 0 1 2008.06 421.09
  L 2004.10 427.93
  A 3.36 3.34 88.8 0 1 2003.00 429.08
  C 1985.83 439.84 1965.19 443.72 1946.13 435.43
  Q 1926.05 426.70 1921.35 404.91
  Q 1917.86 388.77 1921.21 373.00
  Q 1924.08 359.51 1933.86 350.69
  C 1945.84 339.87 1963.57 332.51 1980.04 335.94
  C 2003.31 340.80 2012.65 360.29 2010.36 382.74
  A 0.84 0.84 0.0 0 1 2009.64 383.48
  Q 1992.04 385.97 1981.99 386.20
  Q 1970.22 386.47 1940.45 386.32
  Z
  M 1991.49 377.70
  C 1991.60 367.01 1989.98 357.20 1983.09 348.81
  Q 1978.54 343.26 1971.39 342.44
  C 1954.36 340.47 1941.53 353.24 1940.39 369.94
  Q 1940.12 373.93 1940.12 377.30
  A 0.56 0.54 2.9 0 0 1940.62 377.84
  Q 1964.09 379.86 1990.99 378.23
  A 0.53 0.53 0.0 0 0 1991.49 377.70
  Z"
/>
<path fill="#faf7f2" d="
  M 2272.54 423.11
  L 2273.90 425.47
  A 0.78 0.76 47.4 0 1 2273.88 426.28
  L 2269.75 432.52
  A 4.40 4.37 0.2 0 1 2268.46 433.79
  Q 2266.50 435.05 2261.82 436.50
  C 2246.05 441.42 2228.40 441.62 2214.07 433.42
  C 2192.31 420.95 2186.10 394.37 2193.79 371.77
  C 2198.97 356.56 2211.40 347.29 2226.25 340.58
  C 2242.56 333.22 2258.38 332.87 2273.71 342.34
  A 0.80 0.79 22.6 0 1 2274.06 343.18
  Q 2271.13 355.84 2271.21 368.59
  A 0.37 0.36 90.0 0 1 2270.85 368.96
  L 2265.47 368.96
  A 0.40 0.39 86.7 0 1 2265.08 368.60
  L 2263.70 356.47
  A 1.75 1.67 -69.2 0 0 2263.33 355.59
  Q 2261.16 352.91 2258.07 351.19
  C 2239.57 340.87 2215.14 346.36 2210.85 370.03
  Q 2207.02 391.20 2215.32 408.14
  C 2223.91 425.65 2243.50 432.45 2261.87 426.88
  Q 2265.14 425.89 2271.58 422.81
  A 0.75 0.74 -27.5 0 1 2272.54 423.11
  Z"
/>
<path fill="#faf7f2" d="
  M 2469.21 439.46
  C 2458.65 440.70 2448.43 439.68 2439.22 435.03
  C 2416.53 423.59 2410.17 396.18 2415.97 373.16
  C 2420.73 354.28 2434.81 340.80 2453.96 336.47
  C 2484.42 329.59 2514.72 346.79 2517.69 379.49
  C 2520.52 410.59 2500.25 435.81 2469.21 439.46
  Z
  M 2434.35 390.51
  C 2436.28 410.94 2448.10 435.72 2473.08 432.50
  C 2496.03 429.54 2499.06 402.28 2497.37 384.40
  C 2495.43 363.98 2483.62 339.20 2458.64 342.42
  C 2435.69 345.38 2432.65 372.63 2434.35 390.51
  Z"
/>
<path fill="#faf7f2" d="
  M 2657.29 419.12
  Q 2650.42 423.99 2631.41 437.10
  C 2626.86 440.24 2615.25 438.87 2611.02 437.30
  Q 2604.10 434.72 2600.24 429.84
  C 2594.82 422.98 2593.90 412.22 2595.91 403.71
  C 2600.04 386.28 2621.56 380.58 2636.63 377.87
  Q 2652.17 375.07 2657.37 374.09
  A 0.67 0.67 0.0 0 0 2657.92 373.42
  Q 2657.71 363.47 2653.72 356.83
  C 2647.85 347.06 2634.41 345.76 2623.71 346.71
  Q 2617.52 347.26 2614.72 352.48
  Q 2611.79 357.96 2609.44 364.20
  A 0.67 0.66 17.5 0 1 2608.65 364.61
  L 2604.13 363.42
  A 0.77 0.76 -82.6 0 1 2603.56 362.68
  L 2603.56 349.88
  A 1.03 1.02 74.1 0 1 2604.04 349.01
  Q 2617.45 340.67 2621.54 339.03
  Q 2638.17 332.32 2655.44 336.80
  C 2671.64 341.01 2674.54 358.32 2675.14 372.34
  Q 2675.19 373.56 2675.30 421.26
  Q 2675.31 425.44 2676.48 427.53
  C 2677.65 429.63 2679.64 429.57 2681.82 429.79
  Q 2686.47 430.25 2689.31 430.47
  A 0.45 0.45 0.0 0 1 2689.73 430.92
  L 2689.73 436.61
  A 0.39 0.38 2.1 0 1 2689.31 436.99
  Q 2673.56 435.78 2657.48 436.99
  A 0.63 0.63 0.0 0 1 2656.80 436.31
  L 2658.05 419.56
  A 0.49 0.48 74.8 0 0 2657.29 419.12
  Z
  M 2657.73 380.97
  Q 2644.83 382.71 2633.90 385.72
  Q 2625.60 388.01 2621.68 391.45
  C 2613.44 398.66 2609.89 412.82 2618.34 421.45
  Q 2626.27 429.56 2637.37 425.01
  Q 2650.36 419.67 2657.71 409.59
  A 1.47 1.43 -27.8 0 0 2657.98 408.75
  L 2657.98 381.19
  A 0.22 0.22 0.0 0 0 2657.73 380.97
  Z"
/>
<path fill="#faf7f2" d="
  M 2700.54 436.73
  L 2700.54 430.83
  A 0.34 0.34 0.0 0 1 2700.87 430.49
  Q 2708.37 430.09 2713.05 429.60
  C 2718.28 429.05 2718.39 423.39 2718.40 418.75
  Q 2718.51 372.80 2718.38 359.50
  C 2718.33 355.14 2717.48 350.43 2712.07 350.15
  Q 2707.12 349.89 2701.56 350.03
  A 0.61 0.60 -0.5 0 1 2700.94 349.43
  L 2700.94 344.51
  A 0.68 0.67 86.6 0 1 2701.53 343.84
  Q 2718.10 341.84 2734.03 335.22
  A 1.86 1.85 -11.3 0 1 2736.60 336.93
  L 2736.60 357.68
  A 0.20 0.20 0.0 0 0 2736.96 357.81
  Q 2743.16 350.43 2748.50 344.26
  C 2755.66 335.99 2765.98 332.57 2776.36 337.09
  A 0.67 0.65 -76.9 0 1 2776.75 337.74
  L 2774.87 362.76
  A 0.60 0.60 0.0 0 1 2774.27 363.32
  L 2770.72 363.32
  A 0.80 0.79 76.7 0 1 2770.01 362.88
  Q 2765.24 353.34 2756.07 353.44
  C 2744.29 353.56 2736.86 365.22 2736.71 376.28
  Q 2736.46 395.73 2736.64 418.69
  C 2736.68 423.54 2736.54 429.00 2743.00 429.54
  Q 2751.45 430.25 2757.69 430.48
  A 0.29 0.29 0.0 0 1 2757.97 430.77
  L 2757.97 436.79
  A 0.25 0.24 -88.9 0 1 2757.72 437.04
  Q 2729.09 435.77 2700.81 436.99
  A 0.26 0.26 0.0 0 1 2700.54 436.73
  Z"
/>
<path fill="#faf7f2" d="
  M 2796.33 405.42
  Q 2796.38 410.12 2796.32 413.01
  C 2796.15 420.31 2801.31 426.51 2807.92 429.04
  Q 2824.00 435.22 2838.59 428.64
  C 2845.28 425.62 2849.60 418.93 2849.39 411.17
  C 2849.12 400.99 2841.04 398.61 2831.60 396.54
  Q 2821.82 394.39 2811.60 391.18
  C 2801.49 388.01 2791.67 383.18 2789.58 371.74
  Q 2787.53 360.50 2792.86 351.22
  C 2799.94 338.87 2815.84 334.95 2829.01 335.05
  Q 2843.06 335.14 2856.83 340.29
  A 0.63 0.63 0.0 0 1 2857.24 340.91
  L 2856.25 364.44
  A 0.33 0.33 0.0 0 1 2855.90 364.76
  L 2850.65 364.54
  A 0.33 0.33 0.0 0 1 2850.33 364.21
  C 2850.34 362.26 2850.58 358.23 2849.96 356.55
  Q 2847.55 350.08 2843.42 347.48
  Q 2831.29 339.84 2817.01 343.13
  Q 2804.68 345.97 2804.18 358.37
  Q 2803.99 363.31 2805.97 366.41
  C 2809.55 372.02 2817.84 374.55 2824.05 375.70
  Q 2837.20 378.14 2847.16 381.07
  C 2853.77 383.01 2860.08 387.14 2863.26 393.52
  C 2867.44 401.90 2865.32 413.50 2860.16 421.17
  C 2851.44 434.11 2834.69 439.57 2819.46 439.93
  Q 2803.43 440.32 2788.02 434.91
  A 0.64 0.63 -75.1 0 1 2787.61 434.19
  Q 2790.23 419.92 2789.77 405.30
  A 0.43 0.43 0.0 0 1 2790.22 404.86
  L 2796.02 405.11
  A 0.32 0.32 0.0 0 1 2796.33 405.42
  Z"
/>
<path fill="#ffffff" d="
  M 456.54 514.97
  A 0.27 0.27 0.0 0 0 456.92 514.74
  L 456.95 514.32
  A 0.05 0.03 -76.7 0 0 456.94 514.29
  Q 437.25 503.08 431.04 500.25
  C 418.23 494.41 408.30 489.50 395.80 484.73
  Q 366.09 473.39 362.94 472.30
  C 339.44 464.21 313.64 457.03 286.26 451.36
  Q 250.76 444.02 227.23 440.63
  Q 194.50 435.91 158.63 434.88
  C 153.02 434.72 146.85 433.71 142.15 433.88
  Q 141.27 433.92 139.96 434.49
  Q 138.77 435.01 137.69 433.82
  Q 133.67 429.39 131.90 424.46
  C 130.50 420.56 130.88 415.86 130.93 410.97
  A 0.43 0.43 0.0 0 1 131.55 410.58
  C 133.98 411.76 136.19 410.99 138.85 411.22
  Q 176.09 414.44 209.50 419.27
  Q 226.10 421.66 259.05 428.94
  Q 277.02 432.90 296.75 438.85
  Q 321.65 446.36 333.93 450.62
  Q 334.71 450.89 358.36 459.66
  C 372.02 464.72 381.69 469.42 395.28 475.58
  Q 405.38 480.16 415.26 485.61
  C 426.10 491.60 435.25 496.15 444.94 502.65
  Q 466.56 517.16 487.99 532.75
  A 0.53 0.53 0.0 0 1 488.08 533.52
  L 488.06 533.54
  A 0.64 0.63 -53.7 0 1 487.23 533.67
  Q 480.30 529.18 468.59 522.92
  C 463.26 520.07 457.52 518.26 452.43 516.00
  Q 431.11 506.55 411.23 498.95
  C 405.20 496.65 398.30 494.85 391.63 492.33
  Q 380.03 487.93 373.55 486.22
  Q 355.84 481.53 333.67 475.89
  C 316.30 471.46 296.74 468.41 279.39 465.86
  Q 242.05 460.38 212.00 458.81
  Q 189.08 457.62 157.00 459.14
  C 155.28 459.22 152.41 459.82 149.90 460.00
  Q 139.87 460.71 133.00 461.96
  Q 131.69 462.19 130.76 462.61
  A 0.66 0.66 0.0 0 1 129.97 461.61
  C 131.44 459.70 130.53 456.97 131.50 455.09
  Q 133.45 451.30 137.82 450.09
  Q 138.84 449.81 142.25 449.94
  Q 173.82 451.22 182.00 451.99
  Q 195.12 453.22 199.16 453.43
  Q 210.50 454.02 213.82 454.46
  C 219.65 455.23 226.46 455.16 233.38 455.91
  Q 269.22 459.79 270.47 459.91
  Q 286.67 461.55 313.99 467.31
  Q 353.79 475.69 390.73 487.81
  Q 409.33 493.91 433.99 504.85
  C 437.39 506.36 439.47 507.02 442.63 508.59
  Q 446.97 510.76 456.54 514.97
  Z"
/>
<path fill="#ffffff" d="
  M 599.08 534.03
  A 0.41 0.41 0.0 0 1 598.62 533.45
  Q 598.99 532.70 600.67 531.78
  Q 601.27 531.45 602.62 530.48
  Q 614.74 521.83 622.27 516.31
  C 623.62 515.31 625.51 514.54 626.67 513.68
  Q 645.21 500.02 665.24 489.70
  Q 670.94 486.77 677.21 483.14
  C 683.46 479.53 690.76 476.71 697.97 473.24
  C 705.01 469.84 711.83 466.19 719.01 463.45
  C 723.52 461.74 730.36 459.17 736.26 456.72
  Q 750.02 451.00 763.89 446.66
  C 781.23 441.22 795.83 435.91 813.79 431.59
  Q 815.06 431.28 850.00 423.24
  Q 858.58 421.27 874.58 418.93
  Q 897.42 415.58 917.57 413.61
  Q 933.19 412.09 946.21 411.40
  Q 947.47 411.33 947.66 411.28
  Q 948.62 410.97 948.96 411.25
  A 0.63 0.62 -46.8 0 0 949.80 411.22
  Q 950.73 410.30 951.99 410.96
  A 0.86 0.83 45.8 0 0 952.71 410.98
  Q 953.99 410.40 956.49 410.59
  A 0.67 0.67 0.0 0 1 957.11 411.26
  L 957.11 422.69
  A 0.30 0.28 60.7 0 1 957.08 422.82
  Q 955.71 426.27 954.06 429.29
  Q 952.54 432.07 949.74 433.41
  A 2.97 2.73 26.3 0 1 948.89 433.66
  Q 937.96 434.95 934.19 434.92
  Q 917.32 434.78 901.25 435.97
  C 883.81 437.26 865.50 439.07 848.71 441.67
  C 801.74 448.93 755.11 460.65 710.62 477.49
  Q 686.98 486.44 680.06 489.59
  Q 651.19 502.74 644.32 506.83
  Q 636.02 511.78 626.28 516.93
  A 0.33 0.33 0.0 0 0 626.20 517.46
  L 626.41 517.67
  A 0.18 0.18 0.0 0 0 626.67 517.67
  Q 628.02 516.38 630.73 515.48
  Q 632.69 514.82 639.12 511.38
  Q 642.27 509.70 647.50 507.35
  Q 658.51 502.40 667.33 498.62
  Q 682.79 492.00 707.38 484.44
  Q 738.74 474.79 771.00 467.24
  C 796.99 461.15 822.16 458.09 850.69 455.51
  C 857.16 454.92 863.97 455.17 870.01 454.05
  C 872.52 453.59 875.44 453.86 877.99 453.75
  Q 884.97 453.44 907.05 451.44
  Q 908.70 451.29 909.42 451.56
  C 910.32 451.90 911.46 451.29 912.61 451.22
  Q 934.82 449.80 945.77 449.87
  Q 957.49 449.95 957.20 461.97
  A 0.59 0.59 0.0 0 1 956.53 462.54
  C 951.67 461.88 941.42 460.29 933.73 459.90
  C 930.35 459.73 927.18 458.94 923.75 458.83
  Q 886.38 457.65 864.51 459.18
  Q 855.16 459.83 853.00 459.92
  Q 847.19 460.15 841.51 460.76
  Q 823.09 462.75 798.44 466.40
  Q 786.13 468.22 774.99 470.73
  Q 749.80 476.41 724.13 483.45
  C 705.29 488.62 687.90 494.88 668.24 501.98
  Q 665.01 503.15 658.83 505.87
  Q 621.41 522.35 620.32 522.86
  Q 609.13 528.05 601.38 533.11
  Q 600.50 533.68 599.08 534.03
  Z"
/>
<path fill="#ffffff" d="
  M 177.96 537.05
  Q 177.63 537.72 177.07 537.08
  A 1.08 1.06 68.3 0 0 176.25 536.72
  L 90.87 537.95
  A 0.74 0.74 0.0 0 1 90.12 537.29
  Q 89.40 530.36 91.96 517.74
  Q 94.76 503.91 101.99 493.28
  Q 106.10 487.24 114.28 483.21
  A 6.47 6.47 0.0 0 1 116.32 482.61
  Q 120.90 482.09 125.87 481.89
  Q 155.50 480.69 191.05 481.25
  A 1.21 1.19 -25.1 0 1 191.81 481.52
  L 192.65 482.17
  A 0.61 0.61 0.0 0 0 193.55 482.00
  L 193.74 481.67
  A 0.73 0.72 16.1 0 1 194.42 481.30
  C 217.66 482.59 239.89 483.81 261.83 486.71
  C 275.93 488.58 289.80 490.27 307.03 492.82
  Q 320.59 494.84 335.83 498.36
  Q 364.57 505.00 388.76 512.23
  Q 396.16 514.44 423.85 524.40
  Q 437.24 529.22 460.11 539.91
  Q 490.38 554.07 516.89 572.62
  Q 528.84 580.98 543.41 593.45
  A 0.73 0.72 -40.7 0 0 544.26 593.51
  C 546.34 592.22 547.69 590.45 549.79 588.68
  Q 573.22 568.96 597.98 555.25
  C 606.01 550.80 618.70 543.88 628.66 539.40
  Q 657.69 526.33 686.90 516.16
  Q 701.58 511.04 722.66 505.55
  Q 745.64 499.56 758.88 496.66
  C 783.76 491.23 808.69 488.30 836.10 484.97
  C 845.16 483.87 855.70 483.22 862.75 482.68
  C 863.89 482.59 865.62 482.87 866.76 482.79
  Q 881.79 481.76 888.27 481.81
  C 889.78 481.82 891.49 480.76 892.58 482.11
  A 0.50 0.50 0.0 0 0 893.37 482.10
  C 894.54 480.63 896.64 481.28 898.19 481.24
  Q 931.20 480.55 967.25 482.22
  C 970.57 482.38 972.80 482.45 975.58 484.13
  C 991.16 493.56 997.15 517.20 996.91 533.95
  A 1.75 1.74 26.4 0 0 997.27 535.01
  Q 998.05 536.02 996.71 537.48
  A 0.81 0.80 -68.4 0 1 996.12 537.74
  Q 980.36 537.84 967.94 537.70
  C 964.67 537.66 962.01 536.87 958.97 537.47
  Q 958.62 537.54 953.32 537.55
  Q 950.26 537.56 947.69 537.28
  C 936.83 536.10 923.14 537.13 912.96 537.11
  Q 895.10 537.06 860.52 537.97
  A 0.86 0.84 20.8 0 0 859.93 538.23
  Q 859.37 538.81 858.65 538.22
  A 0.47 0.46 -44.4 0 0 858.06 538.22
  C 856.01 539.82 849.75 538.16 846.94 539.40
  C 846.34 539.66 845.78 539.37 844.96 539.44
  Q 808.91 542.36 787.82 545.39
  C 768.96 548.09 751.42 551.56 737.00 554.77
  Q 713.25 560.05 697.88 564.65
  Q 689.42 567.18 672.40 572.61
  C 657.22 577.45 644.09 582.92 630.86 588.60
  Q 620.90 592.88 614.63 597.38
  C 611.70 599.48 610.94 602.73 609.28 606.55
  Q 605.77 614.65 597.52 618.78
  C 583.40 625.84 566.11 629.00 550.52 629.80
  Q 523.05 631.21 498.47 622.31
  C 492.62 620.19 485.71 616.79 481.60 611.82
  Q 477.27 606.57 475.56 599.69
  A 1.70 1.68 -74.3 0 0 475.11 598.88
  Q 472.81 596.55 472.42 596.32
  C 462.38 590.45 447.38 584.13 439.36 581.15
  Q 407.56 569.35 379.96 562.62
  C 332.45 551.06 282.69 542.54 233.18 539.43
  Q 230.65 539.27 228.30 539.00
  C 225.63 538.70 222.66 538.98 219.57 538.61
  Q 213.30 537.87 209.25 537.83
  Q 201.72 537.74 179.70 537.76
  A 0.93 0.91 -16.3 0 1 178.93 537.35
  L 178.70 537.00
  A 0.43 0.43 0.0 0 0 177.96 537.05
  Z"
/>
<path fill="#faf7f2" d="
  M 594.37 536.39
  Q 594.45 536.11 594.72 536.09
  A 0.24 0.23 -66.1 0 1 594.88 536.51
  Q 594.61 536.71 594.42 536.55
  A 0.18 0.17 30.1 0 1 594.37 536.39
  Z"
/>
</svg>
