<?xml version="1.0" encoding="UTF-8" standalone="no"?>
<!DOCTYPE svg PUBLIC "-//W3C//DTD SVG 1.1//EN" "http://www.w3.org/Graphics/SVG/1.1/DTD/svg11.dtd">
<svg xmlns="http://www.w3.org/2000/svg" version="1.1" viewBox="0.00 0.00 908.00 540.00">
<path fill="#ffffff" d="
  M 405.32 32.13
  A 0.59 0.58 -87.3 0 1 404.74 31.49
  L 405.31 26.01
  A 1.07 1.06 -62.3 0 0 405.06 25.20
  C 401.39 20.88 382.92 25.61 377.82 27.34
  Q 374.55 28.45 368.28 30.98
  A 0.89 0.89 0.0 0 1 367.29 29.56
  C 378.75 16.94 394.41 6.61 410.47 3.19
  C 417.08 1.79 425.72 0.33 433.16 0.51
  Q 453.99 1.04 472.94 9.04
  Q 474.31 9.62 474.58 10.70
  A 0.66 0.66 0.0 0 1 473.82 11.50
  Q 461.59 9.25 450.20 9.90
  Q 432.73 10.91 420.56 21.80
  C 416.81 25.17 412.88 28.31 408.64 31.80
  A 1.45 1.44 25.1 0 1 407.72 32.13
  L 405.32 32.13
  Z"
/>
<path fill="#ffffff" d="
  M 169.25 285.40
  A 0.15 0.15 0.0 0 1 169.26 285.10
  C 178.59 284.05 186.23 283.43 195.25 281.63
  Q 222.97 276.12 251.19 266.17
  Q 260.92 262.75 270.37 258.36
  Q 270.93 258.10 271.54 258.06
  A 2.70 2.68 -59.2 0 0 272.55 257.80
  Q 301.69 243.76 316.03 235.02
  Q 341.83 219.31 363.99 202.24
  Q 374.89 193.85 381.93 188.35
  Q 385.91 185.25 399.69 174.25
  Q 432.83 147.80 447.03 137.78
  Q 474.02 118.72 504.17 104.94
  C 528.00 94.04 554.83 86.72 579.25 83.80
  Q 592.49 82.21 608.49 82.44
  C 633.78 82.81 659.97 87.71 682.19 100.27
  Q 684.37 101.50 691.35 104.89
  A 0.32 0.32 0.0 0 0 691.69 104.35
  C 690.57 103.45 690.35 102.16 689.54 101.10
  Q 675.46 82.52 657.88 72.87
  Q 632.78 59.09 604.72 56.84
  C 576.30 54.57 549.39 56.03 521.94 63.68
  Q 493.99 71.47 468.63 84.63
  Q 432.73 103.26 401.52 128.03
  Q 388.57 138.31 365.78 157.54
  Q 364.33 158.76 360.90 162.34
  A 5.18 5.13 -81.4 0 1 359.45 163.42
  C 357.28 164.51 355.19 166.94 352.89 168.91
  C 328.87 189.47 308.16 206.97 286.58 221.56
  Q 268.08 234.07 257.35 239.83
  Q 240.66 248.80 227.03 254.98
  Q 216.19 259.90 200.15 265.14
  Q 174.43 273.56 150.16 275.90
  Q 134.17 277.45 116.10 276.58
  Q 99.40 275.78 83.30 271.72
  A 0.37 0.36 20.4 0 1 83.06 271.20
  Q 83.72 269.92 85.57 269.98
  Q 92.92 270.20 104.25 269.99
  Q 130.19 269.51 156.95 262.43
  C 168.57 259.35 184.98 254.75 198.56 249.30
  Q 216.88 241.93 234.22 232.21
  Q 260.87 217.27 285.21 198.20
  C 297.63 188.47 312.40 175.58 325.90 164.32
  Q 334.56 157.09 339.42 152.59
  Q 341.47 150.70 343.83 149.22
  C 345.68 148.06 347.16 145.91 349.23 144.11
  Q 380.91 116.49 407.60 97.62
  Q 419.03 89.53 435.78 79.45
  C 457.59 66.34 478.93 56.65 501.36 48.64
  Q 511.70 44.94 533.60 40.15
  Q 573.09 31.51 612.53 36.70
  Q 635.28 39.69 655.85 47.94
  C 663.65 51.07 672.96 56.61 679.72 60.99
  Q 700.68 74.58 713.19 95.31
  C 721.61 109.28 725.21 122.67 724.32 139.01
  C 724.05 143.96 720.85 151.76 715.49 153.55
  A 2.71 2.69 -36.1 0 1 713.05 153.18
  Q 706.46 148.41 701.08 143.63
  Q 696.43 139.50 693.36 137.71
  Q 688.50 134.87 684.69 133.13
  C 681.84 131.84 678.35 131.09 675.09 130.21
  C 661.54 126.55 644.31 126.65 631.71 134.02
  Q 628.28 136.02 627.43 136.51
  C 623.04 139.06 619.31 143.71 616.14 148.13
  Q 608.96 158.12 607.59 169.31
  Q 605.84 183.72 608.47 198.50
  Q 612.24 219.75 624.97 237.03
  C 642.88 261.34 669.06 279.97 698.46 287.04
  Q 724.47 293.29 750.89 291.25
  A 0.24 0.24 0.0 0 0 750.92 290.77
  C 743.69 289.33 735.96 288.76 729.27 287.41
  Q 712.70 284.08 697.83 278.26
  A 0.30 0.29 -52.4 0 1 697.77 277.75
  Q 698.76 277.01 699.56 276.78
  C 703.96 275.50 708.42 275.30 713.14 274.41
  Q 733.09 270.62 751.91 269.47
  Q 752.92 269.40 753.99 269.20
  C 757.64 268.50 761.24 269.11 763.86 268.58
  A 1.72 1.67 -40.0 0 1 764.83 268.65
  C 767.20 269.53 770.63 267.92 773.38 267.90
  Q 795.26 267.73 806.80 268.02
  Q 809.05 268.08 812.22 268.58
  C 817.41 269.40 821.86 270.17 826.06 272.26
  Q 829.16 273.79 833.06 277.81
  C 839.50 284.45 844.99 292.76 846.04 301.79
  A 1.63 1.63 0.0 0 1 844.53 303.60
  Q 834.59 304.25 819.50 304.71
  Q 772.54 306.16 726.63 314.42
  Q 704.02 318.48 690.26 322.25
  C 674.35 326.60 657.63 331.47 640.35 337.85
  Q 611.79 348.39 587.69 359.69
  Q 569.34 368.30 549.14 380.41
  Q 528.39 392.84 510.27 407.51
  Q 475.72 435.46 453.93 473.34
  A 0.51 0.51 0.0 0 1 453.05 473.35
  C 444.71 459.89 436.40 446.69 425.98 435.23
  C 425.23 434.40 424.62 432.87 423.86 432.72
  A 0.83 0.83 0.0 0 1 423.19 431.96
  Q 423.16 431.44 422.62 430.89
  Q 412.15 420.30 408.87 417.27
  Q 408.39 416.83 407.87 416.58
  A 3.35 2.99 76.6 0 1 407.08 416.03
  Q 401.25 410.51 393.70 404.56
  C 371.71 387.20 347.46 372.92 322.36 360.72
  Q 310.82 355.11 285.77 345.35
  Q 269.27 338.92 248.07 332.93
  C 218.53 324.58 190.57 317.78 161.12 313.20
  Q 131.49 308.59 126.43 308.14
  Q 113.65 306.98 108.50 306.38
  C 103.79 305.82 99.30 306.05 94.32 305.51
  Q 92.61 305.32 88.67 305.16
  Q 63.14 304.08 63.08 304.08
  A 1.56 1.54 -5.1 0 1 61.51 302.78
  L 59.31 288.81
  A 2.50 2.35 47.6 0 1 59.32 288.02
  Q 60.03 283.95 62.13 280.15
  A 0.46 0.46 0.0 0 1 62.79 280.00
  Q 62.88 280.06 62.93 280.13
  A 0.75 0.73 -18.1 0 0 63.44 280.38
  Q 66.91 280.66 87.30 283.18
  C 108.05 285.75 130.85 286.71 149.29 289.47
  Q 167.58 292.21 190.64 296.24
  Q 215.19 300.53 231.71 304.47
  Q 284.51 317.05 331.37 337.16
  Q 357.48 348.36 384.18 364.94
  Q 386.46 366.36 388.13 367.22
  Q 390.20 368.29 391.90 369.80
  A 0.22 0.22 0.0 0 0 392.22 369.51
  C 389.76 366.14 385.67 364.40 382.66 362.09
  Q 369.27 351.87 356.17 344.85
  C 348.38 340.68 339.03 334.69 331.72 331.55
  Q 324.19 328.31 313.76 323.63
  C 297.87 316.51 281.10 311.18 266.75 306.48
  Q 253.86 302.26 237.36 298.41
  Q 214.14 292.98 185.50 288.27
  Q 176.52 286.79 169.25 285.40
  Z
  M 537.93 129.21
  C 535.78 130.28 531.72 132.26 528.74 134.46
  Q 518.26 142.22 515.66 144.19
  C 489.28 164.13 470.83 197.56 470.25 231.00
  C 469.86 253.60 476.58 273.97 490.21 291.48
  Q 499.51 303.42 512.24 312.10
  C 524.30 320.32 537.37 326.46 552.72 330.32
  Q 565.69 333.59 576.05 335.14
  Q 579.37 335.63 583.69 335.32
  A 0.33 0.33 0.0 0 0 583.91 334.76
  Q 583.88 334.73 580.21 333.74
  C 573.77 332.01 566.83 328.44 561.97 325.52
  Q 544.32 314.90 530.58 299.45
  Q 515.79 282.81 507.15 259.33
  Q 501.58 244.17 500.38 225.35
  C 498.78 200.33 504.98 176.38 517.35 155.32
  Q 525.70 141.09 538.19 129.57
  A 0.23 0.22 9.8 0 0 537.93 129.21
  Z
  M 444.60 177.72
  A 0.40 0.39 -42.7 0 0 444.01 177.70
  Q 442.65 179.07 440.70 180.19
  Q 439.94 180.63 437.52 183.05
  Q 434.67 185.92 431.77 188.27
  Q 405.23 209.81 377.74 229.18
  C 367.22 236.59 353.60 244.60 343.99 250.23
  Q 332.74 256.83 319.13 261.73
  A 0.33 0.32 47.1 0 0 319.11 262.33
  L 319.87 262.68
  A 0.82 0.78 -41.9 0 0 320.49 262.70
  C 328.79 259.76 337.83 257.22 345.61 254.44
  Q 371.07 245.36 395.02 234.24
  A 1.19 1.19 0.0 0 1 396.71 235.22
  C 398.61 256.60 407.06 275.72 421.67 292.11
  C 437.11 309.42 457.10 323.33 477.99 332.88
  Q 478.93 333.31 479.61 333.34
  Q 480.68 333.37 481.12 334.10
  A 0.63 0.61 67.9 0 0 481.76 334.38
  Q 482.81 334.17 483.27 335.25
  A 0.43 0.43 0.0 0 0 483.81 335.48
  L 483.94 335.42
  A 0.46 0.46 0.0 0 0 484.17 334.74
  C 483.33 333.44 481.32 332.74 479.23 331.84
  Q 477.50 331.09 475.60 329.80
  C 461.71 320.37 448.37 307.42 440.34 292.40
  C 433.35 279.34 428.43 266.52 427.26 251.91
  C 426.24 239.02 426.31 226.08 429.72 213.97
  Q 433.61 200.15 441.32 183.73
  A 1.38 0.09 -50.2 0 1 441.90 182.93
  Q 442.32 182.43 442.31 181.50
  Q 442.30 180.95 443.41 179.51
  Q 444.13 178.56 444.60 178.11
  A 0.28 0.27 49.1 0 0 444.62 177.74
  L 444.60 177.72
  Z
  M 548.94 208.91
  Q 548.80 208.09 546.26 222.72
  C 543.22 240.24 544.52 260.99 552.76 276.91
  Q 564.34 299.30 588.87 308.33
  C 599.39 312.20 612.25 314.13 624.98 314.02
  C 632.52 313.95 643.20 314.16 643.73 313.54
  A 0.38 0.38 0.0 0 0 643.43 312.91
  Q 640.61 312.99 639.75 312.15
  A 0.74 0.73 68.8 0 0 639.30 311.95
  L 633.49 311.45
  A 0.82 0.80 69.4 0 1 633.02 311.23
  Q 632.99 311.20 632.89 311.11
  A 1.01 1.01 0.0 0 0 632.23 310.84
  Q 630.46 310.79 628.78 310.25
  C 615.29 305.86 601.78 299.79 590.94 290.89
  Q 582.21 283.71 579.91 281.33
  Q 572.85 274.03 566.25 264.77
  C 556.12 250.55 547.97 230.98 549.38 213.54
  Q 549.50 212.13 548.94 208.91
  Z
  M 393.5359 370.3036
  A 0.46 0.18 -134.8 0 0 393.7323 370.7568
  A 0.46 0.18 -134.8 0 0 394.1841 370.9564
  A 0.46 0.18 -134.8 0 0 393.9877 370.5032
  A 0.46 0.18 -134.8 0 0 393.5359 370.3036
  Z"
/>
<path fill="#ffffff" d="
  M 249.33 66.81
  C 254.07 62.87 260.02 59.75 266.20 56.72
  C 282.59 48.69 302.20 44.87 320.18 44.50
  C 325.13 44.40 330.08 45.41 334.30 46.19
  Q 342.81 47.78 349.87 54.64
  Q 352.67 57.36 356.73 56.64
  Q 364.68 55.25 370.24 55.26
  Q 385.13 55.29 397.29 63.19
  Q 400.81 65.48 402.88 68.45
  A 0.46 0.46 0.0 0 1 402.47 69.18
  Q 399.05 68.90 398.20 68.77
  Q 383.64 66.57 372.77 68.61
  Q 363.31 70.39 355.97 74.27
  C 343.11 81.07 333.28 86.97 318.86 85.60
  A 1.93 1.89 1.1 0 1 317.11 83.82
  Q 317.07 82.95 316.65 82.62
  A 2.23 2.18 38.5 0 1 316.26 79.52
  Q 316.40 79.35 320.75 74.88
  A 1.46 1.45 -19.8 0 0 321.17 73.99
  Q 321.66 69.51 319.15 67.11
  Q 315.93 64.02 310.93 62.79
  Q 299.54 60.01 291.51 60.40
  C 278.53 61.04 265.42 63.99 252.06 67.37
  Q 250.01 67.89 249.39 67.52
  A 0.44 0.44 0.0 0 1 249.33 66.81
  Z"
/>
<path fill="#ffffff" d="
  M 363.93 422.49
  Q 363.85 422.11 363.36 422.07
  Q 363.04 422.04 362.68 421.88
  Q 358.94 420.16 355.94 418.08
  A 1.38 1.33 -26.3 0 0 355.15 417.83
  L 354.75 417.83
  A 1.12 1.06 59.8 0 1 354.17 417.66
  L 348.94 414.30
  A 6.93 6.84 -15.6 0 0 348.02 413.79
  Q 335.71 408.04 334.21 407.25
  Q 333.64 406.96 331.21 405.86
  Q 306.43 394.65 280.06 385.16
  Q 257.43 377.03 240.82 372.42
  C 206.70 362.97 173.82 356.50 138.62 351.12
  Q 103.89 345.81 68.47 345.00
  C 63.11 344.87 56.62 343.72 51.89 344.13
  C 50.27 344.27 49.27 345.76 47.58 343.90
  Q 38.81 334.26 40.84 321.08
  A 0.56 0.54 5.2 0 1 41.41 320.62
  Q 53.57 321.29 58.76 321.81
  Q 98.73 325.83 126.25 330.26
  Q 171.67 337.57 219.94 352.64
  C 247.57 361.27 273.60 370.69 299.04 382.45
  Q 321.19 392.70 336.41 401.63
  Q 339.78 403.61 340.78 404.09
  Q 345.14 406.20 345.31 406.28
  Q 346.69 406.88 350.40 409.63
  C 352.31 411.05 354.98 412.33 357.36 413.99
  C 367.14 420.83 373.66 425.00 381.87 431.05
  Q 387.45 435.15 398.01 442.45
  A 0.84 0.83 -56.1 0 1 398.23 443.59
  L 398.21 443.61
  A 0.75 0.74 31.9 0 1 397.20 443.84
  Q 379.67 433.21 376.68 432.04
  Q 367.24 428.32 359.61 424.91
  Q 346.74 419.16 342.63 417.58
  C 331.40 413.27 320.43 408.39 308.93 404.97
  C 299.35 402.12 290.12 398.25 280.63 395.64
  C 253.63 388.20 226.29 381.58 197.54 377.18
  Q 161.06 371.60 127.00 369.39
  Q 113.75 368.54 88.25 368.64
  C 81.43 368.67 76.44 369.31 69.26 369.45
  Q 63.35 369.57 45.17 371.81
  Q 44.28 371.92 43.85 372.14
  Q 43.18 372.50 42.87 372.26
  C 42.42 371.92 41.11 372.77 40.10 372.68
  A 0.60 0.59 -85.2 0 1 39.56 372.03
  Q 39.61 371.42 40.12 370.90
  A 1.19 1.15 -21.8 0 0 40.45 370.17
  Q 40.86 365.70 41.29 365.04
  C 45.03 359.26 49.03 359.69 55.50 360.01
  C 67.51 360.60 79.89 360.90 91.49 361.86
  C 104.05 362.90 114.94 363.16 125.83 364.24
  Q 133.73 365.03 156.99 367.00
  C 168.07 367.93 176.51 369.30 188.31 370.80
  Q 193.65 371.47 200.78 372.77
  C 219.15 376.10 230.14 377.88 245.05 381.78
  Q 278.34 390.48 294.40 395.45
  Q 306.64 399.24 328.59 408.04
  C 329.58 408.43 330.48 409.28 331.37 409.24
  Q 331.81 409.22 332.66 409.56
  Q 338.63 411.96 347.55 416.47
  A 3.33 3.28 56.7 0 0 349.13 416.81
  Q 350.70 416.73 351.92 418.06
  A 2.51 2.47 -8.6 0 0 352.72 418.64
  L 357.56 420.85
  A 0.44 0.10 31.7 0 0 357.65 420.88
  Q 360.50 421.63 362.43 423.10
  A 0.74 0.72 57.0 0 0 363.05 423.24
  Q 363.68 423.09 364.07 423.71
  Q 364.39 424.23 364.84 424.28
  Q 365.94 424.42 366.08 424.36
  A 0.40 0.40 0.0 0 0 366.17 423.68
  Q 365.46 423.11 364.48 422.98
  A 0.66 0.66 0.0 0 1 363.93 422.49
  Z"
/>
<path fill="#ffffff" d="
  M 507.96 444.56
  A 0.39 0.39 0.0 0 1 507.63 443.86
  Q 527.81 429.06 553.45 411.96
  C 562.23 406.11 571.22 401.76 580.29 396.71
  Q 590.25 391.17 596.55 388.33
  Q 605.37 384.37 612.83 380.58
  C 623.63 375.10 637.00 370.42 646.64 366.31
  Q 655.37 362.60 671.97 357.16
  Q 692.74 350.35 697.56 348.82
  C 713.43 343.76 729.61 339.97 746.81 335.99
  Q 759.11 333.14 769.67 331.30
  Q 817.78 322.90 866.75 320.44
  A 0.44 0.44 0.0 0 1 867.21 320.86
  Q 867.36 324.83 867.37 328.50
  Q 867.41 336.54 861.91 342.17
  A 5.82 5.82 0.0 0 1 858.30 343.89
  C 852.66 344.40 849.00 344.82 843.57 344.89
  Q 794.60 345.52 747.73 353.75
  Q 722.14 358.24 714.86 359.86
  Q 710.63 360.80 691.37 365.59
  Q 651.23 375.58 609.78 391.80
  Q 573.58 405.95 545.38 421.99
  Q 541.83 424.01 541.65 424.15
  Q 539.82 425.63 537.59 426.17
  A 0.27 0.26 72.1 0 0 537.41 426.53
  A 0.17 0.16 65.7 0 0 537.63 426.62
  Q 547.80 421.92 554.38 418.64
  Q 555.97 417.84 574.70 409.44
  Q 581.07 406.59 603.62 398.64
  C 621.15 392.46 636.52 388.78 656.11 383.20
  Q 666.68 380.19 679.27 377.44
  Q 709.89 370.74 740.78 367.16
  C 755.31 365.48 765.54 364.99 784.75 363.61
  Q 793.57 362.98 801.07 363.04
  A 0.99 0.97 17.3 0 0 801.87 362.63
  Q 802.35 361.93 803.07 362.56
  A 0.60 0.59 -45.4 0 0 803.87 362.55
  Q 804.19 362.25 804.77 362.24
  C 808.90 362.11 811.05 362.20 813.58 361.64
  Q 814.66 361.40 816.00 361.41
  C 822.46 361.44 831.03 360.34 837.98 360.22
  Q 849.92 360.01 850.82 359.95
  Q 859.38 359.36 862.60 361.31
  Q 867.19 364.08 867.50 371.62
  A 1.03 1.03 0.0 0 1 866.34 372.68
  Q 854.40 371.22 851.54 370.78
  Q 848.02 370.23 844.41 370.22
  C 841.61 370.22 838.00 369.42 834.86 369.25
  Q 805.42 367.68 774.01 369.60
  Q 769.15 369.89 763.00 370.22
  Q 756.21 370.57 752.03 371.00
  Q 730.58 373.18 707.39 376.66
  Q 698.69 377.97 689.45 379.93
  Q 675.38 382.92 645.73 390.49
  Q 618.84 397.36 584.85 409.73
  C 567.04 416.22 545.25 426.52 529.12 433.63
  Q 523.73 436.00 511.06 443.25
  Q 509.48 444.15 507.96 444.56
  Z"
/>
<path fill="#ffffff" d="
  M 460.00 540.00
  L 446.87 540.00
  Q 435.19 539.10 427.02 537.72
  Q 413.85 535.48 401.52 529.47
  C 392.89 525.26 388.14 518.58 385.00 509.83
  A 2.79 2.77 -74.5 0 0 384.54 509.01
  Q 382.69 506.65 381.83 506.17
  Q 369.14 499.11 354.67 493.44
  C 340.04 487.71 322.36 481.54 304.97 476.80
  C 270.00 467.26 234.90 460.62 199.47 455.33
  Q 172.93 451.37 147.19 449.81
  Q 128.71 448.69 120.39 447.90
  A 2.42 1.98 10.5 0 0 120.05 447.88
  L 89.47 447.87
  A 0.54 0.53 -19.0 0 1 89.05 447.67
  Q 88.93 447.52 88.86 447.45
  A 0.69 0.69 0.0 0 0 87.86 447.44
  Q 87.42 447.90 86.80 447.24
  A 1.33 1.32 -21.6 0 0 85.84 446.83
  L 75.79 446.83
  A 1.23 1.14 -57.9 0 0 75.20 446.99
  Q 73.18 448.20 70.18 446.96
  A 1.59 1.54 55.4 0 0 69.58 446.84
  L 58.62 446.84
  A 3.09 2.99 37.9 0 0 57.97 446.91
  C 54.09 447.81 50.08 447.07 46.37 447.07
  Q 37.87 447.07 36.99 447.17
  Q 36.73 447.20 34.15 447.77
  A 4.03 3.70 36.1 0 1 33.27 447.87
  L 0.00 447.82
  L 0.00 442.37
  Q 0.91 424.01 7.61 410.14
  C 11.09 402.93 17.86 394.81 25.64 392.37
  A 5.33 5.17 -52.5 0 1 27.27 392.13
  Q 39.39 392.16 44.93 391.88
  Q 46.51 391.80 48.01 391.27
  A 1.20 1.20 0.0 0 1 48.96 391.34
  Q 49.54 391.65 50.51 391.37
  Q 51.28 391.15 52.03 391.15
  Q 73.68 391.00 100.48 391.10
  Q 102.68 391.11 102.75 391.85
  A 0.27 0.27 0.0 0 0 103.23 391.99
  Q 103.63 391.46 103.66 391.36
  Q 103.70 391.20 104.28 391.20
  C 108.89 391.14 112.43 391.76 116.25 391.93
  Q 144.51 393.23 162.25 395.27
  Q 206.86 400.42 236.55 406.22
  Q 255.97 410.02 284.52 417.98
  Q 318.24 427.37 351.99 441.52
  Q 357.58 443.87 378.57 453.79
  C 385.55 457.09 393.52 461.66 399.31 464.93
  Q 424.04 478.92 447.11 497.88
  Q 452.93 502.67 453.30 503.31
  A 0.62 0.62 0.0 0 0 454.28 503.48
  L 460.14 497.93
  A 0.81 0.78 9.2 0 1 460.37 497.77
  Q 463.51 496.18 466.58 492.60
  Q 466.77 492.38 467.79 491.83
  A 5.08 4.52 -74.9 0 0 468.46 491.39
  Q 485.80 477.93 501.67 468.67
  C 513.83 461.57 529.27 453.32 544.77 446.51
  Q 571.96 434.56 597.43 425.80
  C 610.73 421.22 625.63 417.32 637.97 413.98
  Q 671.23 404.99 706.74 399.77
  Q 737.41 395.27 755.02 393.91
  Q 768.37 392.88 772.82 392.39
  A 1.83 1.81 -33.1 0 1 773.94 392.62
  C 775.60 393.54 777.68 392.13 779.43 392.16
  Q 779.94 392.16 798.75 392.04
  A 1.87 1.86 26.3 0 0 799.88 391.66
  Q 801.32 390.57 802.59 391.93
  A 0.45 0.45 0.0 0 0 803.29 391.88
  Q 803.80 391.13 805.56 391.12
  Q 831.65 390.99 854.50 391.14
  Q 855.18 391.14 856.28 391.49
  A 1.96 1.87 -42.0 0 0 857.28 391.52
  C 860.51 390.71 864.75 392.26 867.59 392.10
  Q 867.68 392.09 881.74 392.14
  A 2.26 2.19 56.7 0 1 882.68 392.35
  C 900.79 400.97 907.07 425.32 906.94 443.59
  A 1.93 1.88 -65.1 0 0 907.36 444.79
  Q 908.48 446.15 906.58 447.65
  A 1.10 1.05 24.8 0 1 905.91 447.88
  L 876.06 447.88
  A 1.68 1.65 56.8 0 1 875.37 447.73
  Q 874.11 447.19 871.80 446.89
  Q 870.01 446.65 869.37 447.46
  A 0.85 0.85 0.0 0 1 868.50 447.76
  C 866.39 447.24 859.34 448.84 855.16 447.06
  A 2.35 2.24 55.4 0 0 854.25 446.87
  Q 839.50 446.73 832.75 446.97
  Q 813.12 447.67 801.58 447.21
  Q 801.27 447.20 800.57 447.55
  Q 800.26 447.70 799.81 447.30
  A 0.82 0.81 -22.6 0 0 799.29 447.09
  Q 795.66 447.00 792.76 447.65
  A 7.33 7.28 38.1 0 1 791.24 447.83
  Q 788.63 447.86 772.50 447.91
  Q 770.43 447.92 769.92 448.49
  A 0.61 0.60 40.7 0 1 769.10 448.55
  Q 768.67 448.21 767.82 448.50
  Q 767.26 448.70 766.60 448.74
  Q 752.90 449.58 731.12 451.64
  Q 649.32 459.38 572.62 486.06
  C 564.81 488.78 555.73 492.74 549.94 494.92
  Q 537.02 499.80 525.68 506.92
  A 5.92 5.89 -83.3 0 0 524.55 507.82
  Q 522.33 510.04 519.70 515.95
  Q 515.43 525.50 505.65 529.96
  Q 491.21 536.54 474.49 538.43
  Q 463.52 539.67 460.00 540.00
  Z"
/>
<ellipse fill="#ffffff" cx="0.00" cy="0.00" transform="translate(504.97,446.13) rotate(-30.5)" rx="0.98" ry="0.41"/>
</svg>
